<?xml version="1.0" encoding="utf-8"?>
<!-- Generator: Adobe Illustrator 16.0.0, SVG Export Plug-In . SVG Version: 6.00 Build 0)  -->
<!DOCTYPE svg PUBLIC "-//W3C//DTD SVG 1.1//EN" "http://www.w3.org/Graphics/SVG/1.1/DTD/svg11.dtd">
<svg version="1.1" id="Layer_1" xmlns="http://www.w3.org/2000/svg" xmlns:xlink="http://www.w3.org/1999/xlink" x="0px" y="0px"
	 width="50px" height="50px" viewBox="0 0 50 50" enable-background="new 0 0 50 50" xml:space="preserve">
<path fill="#444444" d="M24.999,0.5C11.194,0.5,0,11.693,0,25.502c0,11.045,7.163,20.416,17.098,23.723
	c1.25,0.228,1.706-0.543,1.706-1.205c0-0.594-0.021-2.168-0.034-4.254c-6.954,1.512-8.421-3.351-8.421-3.351
	c-1.137-2.888-2.776-3.657-2.776-3.657c-2.27-1.55,0.172-1.52,0.172-1.52c2.509,0.177,3.829,2.578,3.829,2.578
	c2.23,3.818,5.852,2.716,7.276,2.078c0.227-1.617,0.873-2.72,1.587-3.343C14.886,35.917,9.05,33.773,9.05,24.193
	c0-2.729,0.974-4.961,2.573-6.708c-0.257-0.632-1.115-3.174,0.245-6.616c0,0,2.099-0.672,6.875,2.563
	c1.994-0.555,4.133-0.832,6.259-0.842c2.124,0.01,4.262,0.287,6.26,0.842c4.772-3.235,6.868-2.563,6.868-2.563
	c1.364,3.442,0.505,5.984,0.249,6.616c1.602,1.748,2.569,3.979,2.569,6.708c0,9.605-5.845,11.718-11.415,12.336
	c0.898,0.772,1.697,2.299,1.697,4.631c0,3.342-0.03,6.037-0.03,6.857c0,0.668,0.45,1.445,1.719,1.203
	C42.846,45.909,50,36.544,50,25.502C50,11.693,38.807,0.5,24.999,0.5z"/>
</svg>
