<?xml version="1.0" encoding="utf-8"?>
<!-- Generator: Adobe Illustrator 21.0.2, SVG Export Plug-In . SVG Version: 6.00 Build 0)  -->
<svg version="1.1" id="Layer_1" xmlns="http://www.w3.org/2000/svg" xmlns:xlink="http://www.w3.org/1999/xlink" x="0px" y="0px"
	 viewBox="0 0 50 50" style="enable-background:new 0 0 50 50;" xml:space="preserve">
<path d="M25,0.5c-13.8,0-25,11.2-25,25c0,11,7.2,20.4,17.1,23.7c1.2,0.2,1.7-0.5,1.7-1.2c0-0.6,0-2.2,0-4.3c-7,1.5-8.4-3.4-8.4-3.4
	c-1.1-2.9-2.8-3.7-2.8-3.7c-2.3-1.5,0.2-1.5,0.2-1.5c2.5,0.2,3.8,2.6,3.8,2.6c2.2,3.8,5.9,2.7,7.3,2.1c0.2-1.6,0.9-2.7,1.6-3.3
	c-5.6-0.6-11.4-2.8-11.4-12.4c0-2.7,1-5,2.6-6.7c-0.3-0.6-1.1-3.2,0.2-6.6c0,0,2.1-0.7,6.9,2.6c2-0.6,4.1-0.8,6.3-0.8
	c2.1,0,4.3,0.3,6.3,0.8c4.8-3.2,6.9-2.6,6.9-2.6c1.4,3.4,0.5,6,0.2,6.6c1.6,1.7,2.6,4,2.6,6.7c0,9.6-5.8,11.7-11.4,12.3
	c0.9,0.8,1.7,2.3,1.7,4.6c0,3.3,0,6,0,6.9c0,0.7,0.5,1.4,1.7,1.2C42.8,45.9,50,36.5,50,25.5C50,11.7,38.8,0.5,25,0.5z"/>
</svg>
